<svg xmlns="http://www.w3.org/2000/svg" viewBox="0 0 450.09 488.67"><defs><style>.cls-1{fill:#fff;}</style></defs><title>Recurso 1</title><g id="Capa_2" data-name="Capa 2"><g id="Capa_1-2" data-name="Capa 1"><path class="cls-1" d="M264.34,341.93V294.81h16.53V265.12h53.42a65.76,65.76,0,0,0,2.51-19.32c0-26.74-22.51-41.84-27.62-45.19a74.52,74.52,0,0,1-14.42-11.71c84.46-40.77,139.67-95.5,126-127.69-8.22-19.45-39.85-26.58-83-22.09,26.78-1.29,61.82,3.5,68.33,18.88,12.1,28.58-41.33,78.94-121.6,116.67C280.32,164.19,280.9,152,280.9,152V95.69c0-58.41-32.95-86.69-37.52-91C238.21-.17,230.2,0,230.2,0s-8-.17-13.19,4.69c-4.57,4.31-37.52,32.59-37.52,91V152s1,19.45-8.07,30.37-15.11,14.86-20.21,18.2a70.33,70.33,0,0,0-17.15,15.66c-29.28.85-49.95-5.49-55.88-19.49a22.44,22.44,0,0,1-1.7-9.3c.3-15.11,13.47-34.5,35.78-54.42-35.72,28.86-54.16,57.85-45.63,78,6.57,15.53,28.07,23.21,58.43,23.39a45.46,45.46,0,0,0-1.46,11.34,65.76,65.76,0,0,0,2.51,19.32h53.41v29.69h16.54v47.12H213V293.46h8.71V377h16.94V293.46h8.74v48.47ZM305,220.69l14.55,11.89v15.6H305Zm-10.38,27.49H280V200.74L294.57,212ZM202.92,45.8c3.39-9.67,13.92-21,18-24.71,3.66-3.36,9.29-3.41,9.29-3.41s5.62.05,9.29,3.41c1.21,1.12,3,2.92,5,5.14l-11.39,9.29v31.4L209,88a5.55,5.55,0,1,0,1.53,1.75L235.43,68V36.62L246,28c4.39,5.08,9.31,11.77,11.44,17.83,2.64,7.55,5,11.71,6.23,21.41l-29.3,26.46a5.43,5.43,0,0,0-3.19-1,5.48,5.48,0,1,0,5.48,5.48A5.42,5.42,0,0,0,236,95.4L264,70.05c.2,2,.36,4.27.47,6.81.5,11.5,1.13,27.51,1.45,40l-33.18,29.41a5.39,5.39,0,0,0-3.22-1.07,5.52,5.52,0,1,0,4.76,2.81l16.29-14.44V156.9l-22.78,19.53a5.41,5.41,0,0,0-3.29-1.13,5.55,5.55,0,1,0,4.8,2.89L252.92,158V131.49L266,119.88c.11,5,.16,9.26.11,12.12-.07,4.61-.18,27.06-.37,51.07h0A485.09,485.09,0,0,1,194.85,207c-.07-6.71-.13-13.72-.19-20.68l18.65-16.86a5.4,5.4,0,0,0,3.18,1,5.48,5.48,0,1,0-5.48-5.48,5.43,5.43,0,0,0,.75,2.71l-17.13,15.48c-.12-16.23-.22-31.73-.29-41.54h26.38l22.51-21.64a5.42,5.42,0,0,0,3.05.94,5.48,5.48,0,1,0-5.48-5.48,5.4,5.4,0,0,0,.83,2.86l-21.84,21H194.66L216,119.66a5.41,5.41,0,0,0,3.14,1,5.48,5.48,0,1,0-5.48-5.48,5.41,5.41,0,0,0,.78,2.76l-20.16,18.6c0-2.08,0-3.65-.05-4.54-.15-8.76.6-30.32,1.3-47.21L215,67.85V52.25a5.48,5.48,0,1,0-2.32,0V66.79l-17,14.8c.07-1.63.14-3.23.2-4.73C196.64,59.54,199.53,55.46,202.92,45.8Zm62.67,156.11c-.22,22.64-.53,42.83-1,46.39H195.76c-.27-2.26-.49-11.21-.68-23.21A493.32,493.32,0,0,0,265.59,201.91ZM165.82,212l14.56-11.29v9.61q-7.45,1.54-14.56,2.71Zm-24.93,36.15V233.92q7.05-.49,14.56-1.43v15.69Zm24.93,0V231q7.13-1.12,14.56-2.65v19.81Zm29.86,31.63V265.75h69v14.06Z"/><path class="cls-1" d="M99.23,190.5a6.66,6.66,0,1,0,6.65,6.66A6.66,6.66,0,0,0,99.23,190.5Z"/><path class="cls-1" d="M116.42,195.48a5.48,5.48,0,1,0-5.48-5.48A5.48,5.48,0,0,0,116.42,195.48Z"/><circle class="cls-1" cx="116.67" cy="206.78" r="3.64" transform="translate(-31.62 21.36) rotate(-9.22)"/><path class="cls-1" d="M151.31,121.06a4.15,4.15,0,1,0-4.14-4.14A4.14,4.14,0,0,0,151.31,121.06Z"/><path class="cls-1" d="M137.76,134.74a5.65,5.65,0,1,0-5.65-5.65A5.65,5.65,0,0,0,137.76,134.74Z"/><path class="cls-1" d="M361.79,107.5a5.65,5.65,0,1,0-5.65,5.65A5.64,5.64,0,0,0,361.79,107.5Z"/><path class="cls-1" d="M400,136.83a5.32,5.32,0,1,0,5.31,5.31A5.32,5.32,0,0,0,400,136.83Z"/><path class="cls-1" d="M334.05,131.39a6.49,6.49,0,1,0-6.48-6.48A6.48,6.48,0,0,0,334.05,131.39Z"/><path class="cls-1" d="M334.18,106.48a4.14,4.14,0,1,0-4.14-4.15A4.15,4.15,0,0,0,334.18,106.48Z"/><path class="cls-1" d="M378.74,152.87a4.14,4.14,0,1,0,4.13-4.14A4.13,4.13,0,0,0,378.74,152.87Z"/><path class="cls-1" d="M63.67,461.09c-3.4-4.64-8.61-11.71-8.61-11.71s18.36-6.15,18.36-26.73c0,0,2.14-24.39-29.74-24.39H0V487H22.92V454.48h9.59s19.07,21.26,22.09,24S62.13,487,76.93,487V467.08H74.8A13.81,13.81,0,0,1,63.67,461.09ZM50.2,425.16c0,13.43-11.73,12.92-11.73,12.92H22.84V414.41H38.47C51.42,414.41,50.2,425.16,50.2,425.16Z"/><path class="cls-1" d="M123.63,414.49c-20.14,0-36.47,16.56-36.47,37s16.33,37,36.47,37,36.48-16.56,36.48-37S143.78,414.49,123.63,414.49Zm0,56.81c-10.48,0-19-8.88-19-19.83s8.51-19.82,19-19.82,19,8.88,19,19.82S134.12,471.3,123.63,471.3Z"/><path class="cls-1" d="M222.35,461.87a18.8,18.8,0,0,1-16.15,9.43c-10.49,0-19-8.88-19-19.83s8.5-19.82,19-19.82a18.71,18.71,0,0,1,15.39,8.24h0l17-5.31a36.41,36.41,0,0,0-32.43-20.09c-20.15,0-36.48,16.56-36.48,37s16.33,37,36.48,37a36.41,36.41,0,0,0,32.55-20.34l-16.39-6.24Z"/><polygon class="cls-1" points="320.01 420.39 295.16 420.39 272.07 443.73 272.07 393.65 250.73 393.65 250.73 486.95 272.07 486.95 272.07 465.19 278.34 457.79 296.92 486.95 321.77 486.95 296.04 449.13 320.01 420.39"/><path class="cls-1" d="M360.57,414.49c-20.14,0-36.48,16.56-36.48,37s16.34,37,36.48,37a36.19,36.19,0,0,0,28.52-14l-14.32-9.87a18.57,18.57,0,0,1-14.2,6.7,19,19,0,0,1-17.67-12.61h53.45a38.18,38.18,0,0,0,.7-7.22,37.28,37.28,0,0,0-.89-8A36.58,36.58,0,0,0,360.57,414.49Zm-17.35,28.95a18.67,18.67,0,0,1,34.71,0Z"/><path class="cls-1" d="M450.09,436.45V422H435V402.44H413.64V422h-9v14.43h9v36.27s-.13,11.3,12.55,14.06S446,488.46,446,488.46V473.93s-2.38.38-6.15-1.38-4.89-4.29-4.89-8.11v-28Z"/></g></g></svg>