<svg id="Capa_1" data-name="Capa 1" xmlns="http://www.w3.org/2000/svg" viewBox="0 0 500 500"><defs><style>.cls-1{fill:#1d1d1b;}</style></defs><title>Mesa de trabajo 2</title><path class="cls-1" d="M289.29,347.6V300.47h16.54V270.79h53.41a65.81,65.81,0,0,0,2.51-19.33c0-26.73-22.51-41.83-27.61-45.18a74.91,74.91,0,0,1-14.43-11.71c84.47-40.78,139.67-95.5,126.05-127.7-8.22-19.44-39.86-26.57-83-22.08,26.79-1.3,61.83,3.5,68.34,18.88,12.09,28.58-41.33,78.94-121.6,116.67-4.21-10.49-3.63-22.63-3.63-22.63V101.35c0-58.4-33-86.69-37.53-91-5.16-4.86-13.18-4.69-13.18-4.69s-8-.17-13.18,4.69c-4.57,4.3-37.52,32.59-37.52,91v56.36s1,19.45-8.08,30.37-15.1,14.85-20.21,18.2A70.64,70.64,0,0,0,159,221.93c-29.29.85-50-5.48-55.88-19.49a22.23,22.23,0,0,1-1.7-9.29c.29-15.11,13.47-34.51,35.77-54.43-35.71,28.87-54.16,57.86-45.63,78C98.15,232.27,119.65,240,150,240.13a45.37,45.37,0,0,0-1.47,11.33,65.81,65.81,0,0,0,2.51,19.33h53.41v29.68H221V347.6H238V299.12h8.71v83.54h16.94V299.12h8.74V347.6ZM329.9,226.36l14.56,11.88v15.61H329.9Zm-10.37,27.49H305V206.4l14.56,11.3ZM227.87,51.47c3.39-9.67,13.92-21,18-24.71,3.66-3.37,9.29-3.41,9.29-3.41s5.63,0,9.29,3.41c1.22,1.12,3,2.92,5,5.14l-11.39,9.29v31.4L234,93.7a5.41,5.41,0,0,0-3.25-1.09,5.48,5.48,0,1,0,5.48,5.48,5.4,5.4,0,0,0-.71-2.64l24.88-21.81V42.29L271,33.64c4.38,5.08,9.31,11.77,11.43,17.83,2.65,7.54,5,11.71,6.24,21.41L259.36,99.34a5.4,5.4,0,0,0-3.18-1,5.56,5.56,0,1,0,4.73,2.77L289,75.72c.2,2,.36,4.26.47,6.81.5,11.49,1.12,27.5,1.44,40l-33.17,29.42a5.42,5.42,0,0,0-3.23-1.07,5.48,5.48,0,1,0,5.48,5.48,5.36,5.36,0,0,0-.72-2.67l16.3-14.45v23.36l-22.78,19.52a5.57,5.57,0,1,0,1.51,1.77l23.59-20.22V137.15L291,125.54c.12,5,.17,9.26.12,12.13-.07,4.61-.19,27.06-.37,51.06l0,0a485,485,0,0,1-70.87,23.94c-.07-6.7-.14-13.72-.19-20.67l18.65-16.86a5.46,5.46,0,1,0-2.3-4.44,5.33,5.33,0,0,0,.75,2.71l-17.13,15.48c-.13-16.23-.22-31.73-.29-41.54h26.38l22.5-21.64a5.59,5.59,0,1,0-1.6-1.69l-21.83,21H219.62L241,125.33a5.47,5.47,0,1,0-2.34-4.48,5.43,5.43,0,0,0,.77,2.76l-20.16,18.6c0-2.08,0-3.66,0-4.54-.14-8.76.61-30.32,1.3-47.21l19.43-16.94V57.92a5.48,5.48,0,1,0-2.33,0V72.46l-17,14.8c.06-1.64.13-3.23.2-4.73C221.6,65.21,224.49,61.13,227.87,51.47Zm62.68,156.11c-.22,22.63-.53,42.82-1,46.39H220.72c-.27-2.26-.5-11.22-.68-23.22A493.63,493.63,0,0,0,290.55,207.58ZM190.78,217.7l14.56-11.3V216q-7.46,1.56-14.56,2.71Zm-24.94,36.15V239.59q7.07-.5,14.56-1.43v15.69Zm24.94,0V236.69q7.11-1.14,14.56-2.65v19.81Zm29.86,31.62V271.42h69v14.05Z"/><path class="cls-1" d="M124.18,196.17a6.65,6.65,0,1,0,6.66,6.65A6.65,6.65,0,0,0,124.18,196.17Z"/><path class="cls-1" d="M141.38,201.15a5.48,5.48,0,1,0-5.48-5.48A5.48,5.48,0,0,0,141.38,201.15Z"/><circle class="cls-1" cx="141.63" cy="212.45" r="3.64" transform="translate(-32.2 25.43) rotate(-9.22)"/><path class="cls-1" d="M176.27,126.72a4.14,4.14,0,1,0-4.15-4.14A4.14,4.14,0,0,0,176.27,126.72Z"/><path class="cls-1" d="M162.71,140.4a5.65,5.65,0,1,0-5.65-5.64A5.64,5.64,0,0,0,162.71,140.4Z"/><path class="cls-1" d="M386.74,113.17a5.65,5.65,0,1,0-5.64,5.65A5.64,5.64,0,0,0,386.74,113.17Z"/><path class="cls-1" d="M424.94,142.5a5.31,5.31,0,1,0,5.31,5.31A5.31,5.31,0,0,0,424.94,142.5Z"/><path class="cls-1" d="M359,137.06a6.49,6.49,0,1,0-6.49-6.49A6.49,6.49,0,0,0,359,137.06Z"/><path class="cls-1" d="M359.13,112.14A4.14,4.14,0,1,0,355,108,4.14,4.14,0,0,0,359.13,112.14Z"/><path class="cls-1" d="M403.69,158.54a4.14,4.14,0,1,0,4.14-4.14A4.14,4.14,0,0,0,403.69,158.54Z"/><path class="cls-1" d="M88.63,466.76c-3.4-4.64-8.62-11.71-8.62-11.71s18.37-6.15,18.37-26.74c0,0,2.13-24.39-29.75-24.39H25v88.69H47.88V460.15h9.58s19.08,21.25,22.09,24,7.53,8.45,22.34,8.45V472.74H99.76A13.77,13.77,0,0,1,88.63,466.76ZM75.16,430.82c0,13.43-11.74,12.93-11.74,12.93H47.8V420.07H63.42C76.37,420.07,75.16,430.82,75.16,430.82Z"/><path class="cls-1" d="M148.59,420.16c-20.15,0-36.48,16.55-36.48,37s16.33,37,36.48,37,36.48-16.56,36.48-37S168.74,420.16,148.59,420.16Zm0,56.8c-10.49,0-19-8.87-19-19.82s8.5-19.83,19-19.83,19,8.88,19,19.83S159.08,477,148.59,477Z"/><path class="cls-1" d="M247.31,467.54A18.81,18.81,0,0,1,231.16,477c-10.49,0-19-8.87-19-19.82s8.5-19.83,19-19.83a18.71,18.71,0,0,1,15.39,8.25h0l17-5.31a36.38,36.38,0,0,0-32.42-20.08c-20.15,0-36.48,16.55-36.48,37s16.33,37,36.48,37a36.39,36.39,0,0,0,32.54-20.34l-16.38-6.24Z"/><polygon class="cls-1" points="344.97 426.05 320.12 426.05 297.02 449.4 297.02 399.32 275.69 399.32 275.69 492.61 297.02 492.61 297.02 470.86 303.3 463.45 321.87 492.61 346.73 492.61 321 454.8 344.97 426.05"/><path class="cls-1" d="M385.53,420.16c-20.15,0-36.48,16.55-36.48,37s16.33,37,36.48,37a36.18,36.18,0,0,0,28.52-14l-14.32-9.87a18.58,18.58,0,0,1-14.2,6.69,19,19,0,0,1-17.68-12.6H421.3a36.86,36.86,0,0,0-.18-15.25A36.59,36.59,0,0,0,385.53,420.16Zm-17.36,28.95a18.66,18.66,0,0,1,34.71,0Z"/><path class="cls-1" d="M475,442.12V427.68H459.93V408.11H438.6v19.57h-9v14.44h9v36.27s-.13,11.3,12.55,14.06S471,494.12,471,494.12V479.6s-2.39.37-6.15-1.39-4.9-4.29-4.9-8.1v-28Z"/></svg>